# xmcd CD database file
#
# Track frame offsets:
#	150
#	27887
#	49357
#	79940
#	118972
#
# Disc length: 4440 seconds
#
# Revision: 0
# Processed by: cddbd v1.5PL3 Copyright (c) Steve Scherf et al.
# Submitted via: CDex 1.51
#
DISCID=40115605
DTITLE=光永亮太 - 君が好きだから．．．
DYEAR=2003
DGENRE=JPop
TTITLE0=君が好きだから．．．
TTITLE1=Joy -a closer mix-
TTITLE2=Silence
TTITLE3=君が好きだから．．． (less vocal)
TTITLE4=CCCD
EXTD=YEAR: 2003
EXTT0=
EXTT1=
EXTT2=
EXTT3=
EXTT4=
PLAYORDER=
